<svg width="64" height="64" viewBox="0 0 64 64" fill="none" xmlns="http://www.w3.org/2000/svg">
<path d="M49 0H15C6.71573 0 0 6.71573 0 15V49C0 57.2843 6.71573 64 15 64H49C57.2843 64 64 57.2843 64 49V15C64 6.71573 57.2843 0 49 0Z" fill="url(#paint0_linear_226_851)"/>
<path fill-rule="evenodd" clip-rule="evenodd" d="M33.7 18.4C33.7 16.5222 35.2222 15 37.1 15H45.6C47.4778 15 49 16.5222 49 18.4V26.9C49 28.7778 47.4778 30.3 45.6 30.3H37.1C35.2222 30.3 33.7 28.7778 33.7 26.9V18.4ZM45.6 18.4H37.1V26.9H45.6V18.4ZM15.9958 22.7958C16.6335 22.1582 17.4983 21.8 18.4 21.8H26.9C27.8017 21.8 28.6665 22.1582 29.3042 22.7958C29.9418 23.4335 30.3 24.2983 30.3 25.2V33.7H38.8C39.7017 33.7 40.5665 34.0582 41.2042 34.6958C41.8418 35.3335 42.2 36.1983 42.2 37.1V45.6C42.2 46.5017 41.8418 47.3665 41.2042 48.0042C40.5665 48.6418 39.7017 49 38.8 49H18.4C17.4983 49 16.6335 48.6418 15.9958 48.0042C15.3582 47.3665 15 46.5017 15 45.6V25.2C15 24.2983 15.3582 23.4335 15.9958 22.7958ZM18.4 37.1V45.6H26.9V37.1H18.4ZM26.9 33.7H18.4V25.2H26.9V33.7ZM30.3 37.1V45.6H38.8V37.1H30.3Z" fill="white"/>
<defs>
<linearGradient id="paint0_linear_226_851" x1="32" y1="0" x2="32" y2="64" gradientUnits="userSpaceOnUse">
<stop stop-color="#6726CF"/>
<stop offset="1" stop-color="#4E2292"/>
</linearGradient>
</defs>
</svg>
